<?xml version="1.0" standalone="no"?>
<!DOCTYPE svg PUBLIC "-//W3C//DTD SVG 20010904//EN"
 "http://www.w3.org/TR/2001/REC-SVG-20010904/DTD/svg10.dtd">
<svg version="1.0" xmlns="http://www.w3.org/2000/svg"
 width="642.000000pt" height="545.000000pt" viewBox="0 0 642.000000 545.000000"
 preserveAspectRatio="xMidYMid meet">
<metadata>
Created by potrace 1.16, written by Peter Selinger 2001-2019
</metadata>
<g transform="translate(0.000000,545.000000) scale(0.100000,-0.100000)"
fill="#000000" stroke="none">
<path d="M0 2725 l0 -2725 3210 0 3210 0 0 2725 0 2725 -3210 0 -3210 0 0
-2725z m3516 1661 c374 -163 808 -351 1179 -511 187 -81 348 -154 358 -162 16
-15 17 -81 17 -1108 0 -1026 -1 -1094 -17 -1113 -10 -11 -270 -129 -578 -262
-308 -133 -699 -303 -870 -377 -170 -75 -324 -138 -342 -140 -25 -4 -102 25
-360 137 -180 78 -578 250 -883 382 -305 132 -563 249 -572 260 -17 19 -18 87
-18 1113 0 1027 1 1093 18 1108 14 13 371 169 1397 612 94 41 215 94 270 119
55 24 114 45 131 45 18 1 126 -40 270 -103z"/>
<path d="M3070 3651 c-174 -65 -242 -104 -483 -277 -89 -65 -269 -194 -399
-287 -131 -93 -238 -174 -238 -181 0 -6 30 -29 67 -51 288 -165 592 -494 751
-810 83 -165 144 -355 158 -493 4 -34 11 -62 15 -62 17 0 22 79 10 192 -20
209 -67 370 -166 573 -191 390 -441 617 -730 662 l-49 8 244 124 c423 214 464
239 711 423 129 96 239 177 246 181 8 5 9 -1 3 -25 -39 -148 -47 -822 -16
-1423 9 -176 18 -381 21 -455 8 -204 15 -260 29 -260 10 0 15 46 20 183 4 100
11 263 16 362 35 665 37 1327 6 1520 -8 49 -13 91 -12 93 2 1 30 -21 63 -51
186 -166 354 -268 876 -529 l287 -144 -82 -12 c-135 -20 -259 -86 -391 -211
-140 -132 -242 -276 -337 -474 -81 -170 -128 -317 -150 -472 -12 -85 -13 -265
-2 -265 5 0 16 46 25 101 31 190 112 395 232 588 158 255 442 535 687 678 43
25 75 49 73 54 -14 22 -816 585 -928 651 -52 31 -362 148 -388 148 -8 -1 -84
-27 -169 -59z"/>
</g>
</svg>
